# xmcd CD database file
#
# Track frame offsets:
#	150
#	18903
#	38720
#	63577
#	83998
#	114523
#
# Disc length: 1534 seconds
#
# Revision: 0
# Processed by: cddbd v1.5.1PL0 Copyright (c) Steve Scherf et al.
# Submitted via: CDex 1.51
#
DISCID=4405fc06
DTITLE=MOTOCOMPO - DREAM FLOWS.ep
DYEAR=2004
DGENRE=Pop
TTITLE0=DREAM FLOWS
TTITLE1=BOYS,BOYS,BOYS...
TTITLE2=CHILDHOOD JUNK
TTITLE3=PLAY TO PLAY
TTITLE4=SPACE JAM
TTITLE5=icon data
EXTD=YEAR: 2004
EXTT0=
EXTT1=
EXTT2=
EXTT3=
EXTT4=
EXTT5=
PLAYORDER=
